<svg width="50" height="50" viewBox="0 0 50 50" fill="none" xmlns="http://www.w3.org/2000/svg">
<circle cx="25" cy="25" r="25" fill="#FFF5E1"/>
<path d="M25.0017 0C11.2056 0 0 11.2024 0 24.9983C0 38.7944 11.2055 50 25.0017 50C38.7978 50 50 38.7945 50 24.9983C50 11.2022 38.7976 0 25.0017 0ZM25.0017 1.94517C37.7463 1.94517 48.0549 12.2538 48.0549 24.9984C48.0549 31.8321 45.092 37.9665 40.3781 42.1866V23.2548L41.8354 20.8836H41.0449L36.4258 8.96816L31.8652 20.8836H31.0162L32.5354 23.2548V26.7809H28.7035V17.6012L30.2258 15.23H29.4355L24.8132 3.3146L20.1941 15.23H19.4036L20.864 17.6012V30.4275H16.9736V28.544L18.4927 26.1726H17.6402L13.083 14.2575L8.46081 26.1725H7.67034L9.13075 28.544V41.7311C4.70371 37.531 1.94527 31.5905 1.94527 24.9983C1.94527 12.2537 12.257 1.94517 25.0017 1.94517ZM25.1155 18.6553H27.0607V22.4384H25.1156V18.6553H25.1155ZM36.5819 27.8123H38.5272V31.592H36.5819V27.8119V27.8123ZM10.907 30.1054H12.8521V33.8885H10.9071V30.1054H10.907ZM16.2027 33.1664H18.1477V36.9494H16.2028V33.1664H16.2027ZM33.9826 36.3412H35.9281V40.1242H33.9826V36.3412Z" fill="#264F2E"/>
</svg>
